<?xml version="1.0" encoding="UTF-8"?>
<svg id="Layer_1" data-name="Layer 1" xmlns="http://www.w3.org/2000/svg" viewBox="0 0 1080 1080">
  <defs>
    <style>
      .cls-1 {
        fill: #fff;
      }

      .cls-2 {
        fill: #00cfff;
      }
    </style>
  </defs>
  <rect class="cls-2" x="210" y="210" width="660" height="660" rx="82.85" ry="82.85"/>
  <g>
    <path class="cls-1" d="M597.28,687.98c3.68,7.4,4.32,15.79,1.8,23.68-2.57,8.04-8.12,14.6-15.62,18.47l-31.64,16.32c-1.89,.98-3.89,1.76-5.93,2.33-2.78,.78-5.66,1.19-8.54,1.19-.16,0-.32,0-.48,0,0,0,0,0,0,0-5.54-.08-10.97-1.63-15.73-4.47-5.06-3.02-9.17-7.39-11.88-12.65l-175.59-340.47c-3.85-7.48-4.57-16-2.01-24.02,2.56-8.01,8.09-14.55,15.56-18.4l31.85-16.43c4.45-2.29,9.43-3.5,14.42-3.5,5.69,0,11.27,1.54,16.16,4.46,5.04,3.01,9.14,7.37,11.84,12.6l16.47,31.93s.02,.04,.03,.07c1.84,3.6,.37,8.01-3.22,9.86l-13.84,7.14-14.27,7.36c-4.3,2.21-6.67,7.14-5.33,11.78,1.76,6.07,8.66,8.93,14.15,6.1l14.57-7.51,13.86-7.15c3.59-1.85,8.03-.49,9.9,3.08,.02,.04,.04,.08,.06,.12l15.74,30.52s.02,.05,.04,.07c1.84,3.6,.37,8.01-3.22,9.86l-13.86,7.15-14.57,7.51c-5.52,2.84-7.18,10.18-3.18,15.13,3.06,3.79,8.48,4.69,12.81,2.46l14.13-7.28,13.86-7.15c3.59-1.85,8.03-.49,9.9,3.09,.02,.04,.04,.08,.06,.12l13.91,26.98,1.96,3.81c1.69,3.56,.2,7.84-3.33,9.66l-13.84,7.14-14.58,7.52c-5.49,2.83-7.16,10.11-3.23,15.06,3,3.79,8.39,4.71,12.69,2.49l14.25-7.35,13.86-7.15c3.59-1.85,8.03-.49,9.9,3.09l15.92,30.87c1.8,3.59,.33,7.97-3.25,9.81l-13.62,7.02-14.87,7.67c-5.44,2.86-7.08,10.1-3.17,15.03,2.93,3.69,8.13,4.66,12.37,2.65h.03s3.38-1.75,3.38-1.75l.56-.29,10.6-5.46c.16-.08,.33-.16,.49-.23h.01s13.39-6.88,13.39-6.88c3.57-1.83,7.98-.5,9.86,3.04l12.29,23.82,30.91,59.94,5.22,10.12Z"/>
    <path class="cls-1" d="M697.17,475.55c1.9,7.22,.89,14.75-2.85,21.22l-2.59,4.56s-.01,.02-.01,.02l-28.52,50.04s-.02,.04-.03,.05l-14.36,24.98-38.13,67.34c-3.04,5.36-10.82,5.21-13.65-.27l-25.69-49.8c-.57-1.11-.86-2.33-.86-3.56,0-1.02,.2-2.04,.6-3.01l10.27-24.44,10.37-24.98s.02-.04,.03-.06l21.02-50.04,9.49-22.6c.2-1.23,.54-2.43,1.03-3.59,0,0,0-.01,0-.02,4.4-10.37,14.51-17.08,25.76-17.13,.08,0,.16,0,.24,0h0c4.37,0,8.71,1.07,12.59,3.09l14.69,7.28,5.83,2.86s.04,.02,.07,.03c.57,.28,1.14,.59,1.69,.91,6.48,3.78,11.11,9.87,13.02,17.13Z"/>
    <path class="cls-1" d="M747.89,350.34c1.74,5.9,2.34,12.93,1.77,20.89-.98,13.92-5.54,30.25-12.51,44.82-.03,.06-.06,.11-.08,.17-3.42,6.93-8.7,12.71-15.28,16.72-6.39,3.89-13.71,5.95-21.18,5.95-6.26,0-12.3-1.41-17.95-4.19-4.92-2.42-9.21-5.74-12.78-9.87-3.43-3.98-6.04-8.52-7.73-13.52-1.69-4.99-2.4-10.18-2.09-15.43,.32-5.44,1.7-10.69,4.12-15.6,3.89-7.9,8.73-13.69,14.78-17.69,5.39-3.57,10.69-5.03,14.95-6.21,6.98-1.92,11.6-3.2,18.53-17.33,1.32-2.69,3.38-4.93,5.94-6.48,2.44-1.48,5.24-2.26,8.09-2.26,2.42,0,4.83,.57,6.99,1.65,4.82,2.41,11.23,7.55,14.42,18.38Z"/>
  </g>
</svg>